<svg width="210" height="210" viewBox="0 0 210 210" fill="none" xmlns="http://www.w3.org/2000/svg">
<circle cx="105" cy="105" r="105" fill="black"/>
<path d="M62.5 20.5C65.3 21.3 69 35 82.5 40L67 53C66.5 49 58.5 37 58 35C57.5 33 59.5 32.5 59 27.5C58.3 20.5 59 19.5 62.5 20.5Z" fill="white"/>
<path d="M142.5 19.5C132.859 36.1522 126 40.5 122 39.5L140.5 58C142.333 58.3333 144.6 56.6 145 55C145.5 53 144 56.5 150.5 46C155.7 37.6 153.333 32.1667 151.5 30.5C150.5 27.5 148 10 142.5 19.5Z" fill="white"/>
<path d="M142.5 35C142.1 29.4 145.95 22.5 148.95 21L150.5 25.5L151.5 30.5C152.912 31.9122 153.92 34.1755 153.6 37.5C153.12 42.5 150.369 47.447 145 55.5C143.5 57.75 142 57.5709 140.5 59C139 57.5 138 56 136.254 53.8689C135.754 51.8689 139.5 49 140.5 46.5C141.5 44 143 42 142.5 35Z" fill="white" stroke="black"/>
<path d="M71 46.5C64.6 54.5 33.6667 123.5 20 160C95 255.5 185 174.5 179.5 171C174 167.5 167 135.5 165 115.5C163 95.5 137 51.5 133 45.5C129 39.5 118.5 38.5 110 38.5C101.5 38.5 95.5 27.5 98.5 34.5C100.124 38.2897 102.5 38.5 95.5 38.5C83.9566 38.5 75 41.5 71 46.5Z" fill="white"/>
<path d="M117 183.037C103.824 198.929 88.1765 190.168 82 183.547C84.9167 183.547 92.5 183.037 99.5 181C103.206 182.63 112.711 183.037 117 183.037Z" fill="white" stroke="black"/>
<path d="M84.4112 73.4241L73.8788 123.692C73.6835 124.624 74.3947 125.5 75.3469 125.5H120.771C121.683 125.5 122.385 124.692 122.255 123.788L115.071 73.495C115.025 73.1737 114.871 72.8693 114.638 72.6435C102.588 60.975 89.959 67.6097 84.8017 72.6955C84.6002 72.8943 84.4692 73.147 84.4112 73.4241Z" fill="white" stroke="black"/>
<path d="M124 126C124 110.5 72 110.5 72 126C72 137 73.5 138 73.5 147C73 155.14 72.6818 175 76.5 182C78.9 186.4 92.8334 183.833 99.5 182C106.167 183.667 120.1 186.4 122.5 180C125.5 173 122.5 155.139 122.5 147C122.5 139 124 137 124 126Z" fill="white" stroke="black"/>
<path d="M86.5 131C85.6067 129.511 81.6166 127.467 79.0532 126.736C78.4323 126.559 77.8865 126.926 78.0003 127.561C78.1294 128.283 78.2258 129.156 76.8598 130.182C76.1713 130.7 75.8494 131.645 76.4016 132.306C80.6415 137.38 87.895 133.325 86.5 131Z" fill="white"/>
<path d="M119.954 133.082C109.921 137.879 109.543 129.979 116.5 126.5C119.108 125.196 117.181 127.293 120.248 130.492C121 131.277 120.934 132.613 119.954 133.082Z" fill="white"/>
<path d="M86.5 131C85.6067 129.511 81.6166 127.467 79.0532 126.736C78.4323 126.559 77.8865 126.926 78.0003 127.561C78.1294 128.283 78.2258 129.156 76.8598 130.182C76.1713 130.7 75.8494 131.645 76.4016 132.306C80.6415 137.38 87.895 133.325 86.5 131Z" stroke="black"/>
<path d="M119.954 133.082C109.921 137.879 109.543 129.979 116.5 126.5C119.108 125.196 117.181 127.293 120.248 130.492C121 131.277 120.934 132.613 119.954 133.082Z" stroke="black"/>
<path d="M63.5 85C65.5 85 67.8334 83.25 67.5 81.75L63 78.5L58.5 75.25C58.5 75.25 57.2 75.25 58 79.25C59 84.25 61 85 63.5 85Z" fill="black"/>
<path d="M135.5 79.5C135.846 78.1153 140.212 74.3836 143.217 72C143.717 73.5 144.5 82 141 84C137.5 86 135 81.5 135.5 79.5Z" fill="black"/>
<path d="M67.3598 81.7563L58.03 75.6717C57.4311 75.2812 57.1642 74.488 57.6432 73.9572C60.6348 70.6412 69.5405 74.2429 70 77C70.2758 78.6543 69.7754 80.2453 69.2196 81.3471C68.8717 82.0366 68.0066 82.1782 67.3598 81.7563Z" fill="white"/>
<path d="M143.133 74.487L135.5 80C133.667 81.1667 133.5 77.1667 135.5 74.5C139.123 69.669 141.558 70.6726 143.326 72.2911C143.988 72.897 143.861 73.9615 143.133 74.487Z" fill="white"/>
<path d="M67.3598 81.7563L58.03 75.6717C57.4311 75.2812 57.1642 74.488 57.6432 73.9572C60.6348 70.6412 69.5405 74.2429 70 77C70.2758 78.6543 69.7754 80.2453 69.2196 81.3471C68.8717 82.0366 68.0066 82.1782 67.3598 81.7563Z" stroke="black"/>
<path d="M143.133 74.487L135.5 80C133.667 81.1667 133.5 77.1667 135.5 74.5C139.123 69.669 141.558 70.6726 143.326 72.2911C143.988 72.897 143.861 73.9615 143.133 74.487Z" stroke="black"/>
<circle cx="105" cy="105" r="102.5" stroke="white" stroke-width="5"/>
</svg>
